<?xml version="1.0" standalone="no"?>
<!DOCTYPE svg PUBLIC "-//W3C//DTD SVG 20010904//EN"
 "http://www.w3.org/TR/2001/REC-SVG-20010904/DTD/svg10.dtd">
<svg version="1.0" xmlns="http://www.w3.org/2000/svg"
 width="512.000000pt" height="512.000000pt" viewBox="0 0 512.000000 512.000000"
 preserveAspectRatio="xMidYMid meet">
<metadata>
Created by potrace 1.11, written by Peter Selinger 2001-2013
</metadata>
<g transform="translate(0.000000,512.000000) scale(0.100000,-0.100000)"
fill="#000000" stroke="none">
<path d="M859 3612 l-22 -19 0 -413 0 -414 25 -21 c20 -17 35 -20 89 -18 105
4 99 -24 99 452 0 396 -1 408 -20 429 -28 30 -136 32 -171 4z"/>
<path d="M1139 3611 l-24 -19 -1 -412 c-1 -472 -4 -451 81 -452 82 -1 94 1
113 20 17 17 18 46 17 435 0 481 8 446 -101 447 -46 0 -68 -5 -85 -19z"/>
<path d="M3812 3605 c-18 -23 -19 -44 -20 -427 0 -334 2 -407 14 -425 13 -20
23 -23 87 -23 122 0 112 -39 112 442 l1 413 -23 23 c-18 18 -33 22 -87 22 -57
0 -67 -3 -84 -25z"/>
<path d="M4090 3610 c-19 -19 -20 -33 -20 -433 0 -484 -8 -452 107 -450 109 2
103 -18 103 363 1 542 2 498 -20 520 -16 16 -33 20 -85 20 -52 0 -69 -4 -85
-20z"/>
<path d="M685 3388 c-3 -13 -4 -36 -4 -53 3 -66 0 -75 -25 -75 -34 0 -43 -17
-41 -88 1 -66 12 -83 47 -77 19 4 19 5 21 -84 2 -55 5 -60 38 -66 52 -9 54 -2
55 222 0 114 -3 216 -8 226 -6 11 -20 17 -43 17 -28 0 -36 -5 -40 -22z"/>
<path d="M4353 3398 c-10 -17 -13 -418 -2 -438 8 -16 62 -21 76 -7 4 5 8 36 9
70 2 80 1 76 22 72 33 -6 44 10 46 71 2 74 -7 94 -42 94 -27 0 -27 1 -26 63 1
81 -2 87 -41 87 -19 0 -37 -6 -42 -12z"/>
<path d="M1389 3242 c-5 -26 -3 -124 2 -127 3 -2 47 -5 97 -6 l91 -1 -7 -52
c-7 -62 -9 -509 -2 -551 11 -60 41 -102 109 -153 93 -71 185 -169 211 -225 21
-44 69 -97 148 -162 17 -15 32 -33 32 -40 0 -31 64 -177 105 -240 25 -38 48
-86 51 -107 6 -37 8 -38 48 -39 48 -1 549 0 587 0 23 1 27 6 33 43 4 23 17 56
30 73 45 59 110 195 121 256 3 13 40 58 84 99 47 44 90 96 107 127 30 59 113
146 202 213 115 87 120 108 116 445 -1 137 -5 265 -8 282 l-6 33 90 -2 c50 0
93 2 96 5 3 3 6 34 6 69 l1 63 -1171 2 c-645 0 -1173 -2 -1173 -5z m1912 -165
c7 -18 27 -54 44 -82 61 -96 75 -123 75 -143 0 -11 -14 -58 -31 -104 -17 -46
-33 -108 -36 -138 -3 -30 -7 -57 -9 -59 -2 -3 -25 -12 -51 -20 -35 -12 -56
-28 -81 -61 -22 -28 -43 -46 -60 -48 -33 -4 -74 -26 -147 -77 -105 -75 -132
-84 -193 -70 -59 14 -98 44 -105 82 -6 33 54 222 70 223 16 0 22 11 28 58 3
28 0 44 -8 49 -7 4 -18 32 -25 62 -7 29 -22 66 -33 83 -46 63 -147 103 -221
86 -91 -20 -150 -78 -169 -165 -7 -32 -19 -62 -26 -66 -22 -14 -16 -75 10
-100 13 -12 32 -49 42 -82 10 -33 22 -66 28 -72 15 -20 10 -81 -8 -109 -38
-59 -169 -73 -215 -24 -21 23 -186 119 -212 124 -23 5 -41 18 -59 45 -27 38
-81 71 -118 71 -18 0 -21 6 -21 44 0 24 -12 77 -26 118 -58 165 -56 148 -18
214 18 33 51 89 71 126 l38 67 727 0 726 0 13 -32z"/>
</g>
</svg>
